<?xml version="1.0" encoding="UTF-8" standalone="no"?>
<!-- Created with Inkscape (http://www.inkscape.org/) -->

<svg
   version="1.1"
   id="svg2"
   width="783.83026"
   height="457.99957"
   viewBox="0 0 783.83029 457.99957"
   sodipodi:docname="Auroralpes2.png"
   xmlns:inkscape="http://www.inkscape.org/namespaces/inkscape"
   xmlns:sodipodi="http://sodipodi.sourceforge.net/DTD/sodipodi-0.dtd"
   xmlns="http://www.w3.org/2000/svg"
   xmlns:svg="http://www.w3.org/2000/svg">
  <defs
     id="defs6" />
  <sodipodi:namedview
     id="namedview4"
     pagecolor="#ffffff"
     bordercolor="#000000"
     borderopacity="0.25"
     inkscape:showpageshadow="2"
     inkscape:pageopacity="0.0"
     inkscape:pagecheckerboard="0"
     inkscape:deskcolor="#d1d1d1"
     showgrid="false"
     showguides="false" />
  <g
     inkscape:groupmode="layer"
     inkscape:label="Image"
     id="g8"
     transform="translate(-190.07928,-165.54687)">
    <g
       id="g905"
       transform="translate(-0.40126012,3.8245165)">
      <path
         style="fill:#d1cbd9;stroke-width:1.33333"
         d="m 324.89721,594.81114 c 0.9625,-0.38516 2.1125,-0.3378 2.55556,0.1052 0.44306,0.44305 -0.34445,0.75819 -1.75,0.70029 -1.55326,-0.064 -1.8692,-0.37992 -0.80556,-0.80554 z m 168,0 c 0.96249,-0.38516 2.1125,-0.3378 2.55556,0.1052 0.44305,0.44305 -0.34446,0.75819 -1.75,0.70029 -1.55327,-0.064 -1.8692,-0.37992 -0.80556,-0.80554 z m 379.99999,0 c 0.96249,-0.38516 2.1125,-0.3378 2.55556,0.1052 0.44305,0.44305 -0.34446,0.75819 -1.75,0.70029 -1.55327,-0.064 -1.8692,-0.37992 -0.80556,-0.80554 z m 56,0 c 0.96249,-0.38516 2.1125,-0.3378 2.55556,0.1052 0.44305,0.44305 -0.34446,0.75819 -1.75,0.70029 -1.55327,-0.064 -1.8692,-0.37992 -0.80556,-0.80554 z m 17.33333,0 c 0.96249,-0.38516 2.1125,-0.3378 2.55556,0.1052 0.44305,0.44305 -0.34446,0.75819 -1.75,0.70029 -1.55327,-0.064 -1.8692,-0.37992 -0.80556,-0.80554 z M 720.41727,544.38862 c 4.1e-4,-27.13333 0.1782,-38.04409 0.39508,-24.24613 0.21688,13.79797 0.21654,35.99797 -7.5e-4,49.33333 -0.21729,13.33537 -0.39475,2.04613 -0.39433,-25.0872 z m 217.06326,31.74756 c 1.28333,-0.33536 3.38333,-0.33536 4.66666,0 1.28334,0.33537 0.23334,0.60977 -2.33333,0.60977 -2.56667,0 -3.61667,-0.2744 -2.33333,-0.60977 z m -410.89472,-13.192 c 0.064,-1.55327 0.37992,-1.8692 0.80554,-0.80556 0.38516,0.96249 0.3378,2.11251 -0.1052,2.55556 -0.44305,0.44305 -0.75818,-0.34445 -0.70029,-1.75 z m -199.81158,-20.17395 -0.29368,-20.28505 -13,-0.43589 -13,-0.4359 13.04184,-0.27905 c 9.65733,-0.20664 13.21393,0.16937 13.70494,1.44893 0.3647,0.95039 0.47802,10.40039 0.25183,21 l -0.41125,19.27202 z m 24.3191,-0.71344 0.0539,-20.33484 13.00309,-0.0764 13.00311,-0.0764 -12.63529,0.45763 -12.6353,0.45763 -0.42169,19.95364 -0.42169,19.95364 0.0539,-20.33484 z m 471.72344,15.66516 c 0.0148,-2.93333 0.28785,-3.97633 0.60677,-2.31778 0.31892,1.65854 0.30682,4.05854 -0.0269,5.33333 -0.33372,1.27479 -0.59467,-0.0823 -0.57987,-3.01555 z M 586.95382,532.38862 c -0.004,-6.6 0.2214,-9.46811 0.50102,-6.37356 0.27963,3.09453 0.28296,8.49453 0.008,12 -0.27556,3.50545 -0.50436,0.97356 -0.50841,-5.62644 z m 320.96531,9.22223 c 0.064,-1.55327 0.37992,-1.8692 0.80555,-0.80556 0.38516,0.96249 0.3378,2.1125 -0.1052,2.55556 -0.44306,0.44305 -0.75819,-0.34446 -0.7003,-1.75 z m -47.10527,-2.77194 c 0.91667,-0.36988 2.41667,-0.36988 3.33334,0 0.91666,0.36988 0.16666,0.67252 -1.66667,0.67252 -1.83333,0 -2.58333,-0.30264 -1.66667,-0.67252 z m 80.66667,-0.036 c 1.28333,-0.33536 3.38333,-0.33536 4.66666,0 1.28334,0.33538 0.23334,0.60978 -2.33333,0.60978 -2.56667,0 -3.61667,-0.2744 -2.33333,-0.60978 z m -486.99999,-4.9177 c 0,-0.27687 1.05,-1.32687 2.33334,-2.33334 2.11474,-1.65849 2.1619,-1.61133 0.50341,0.50342 -1.74183,2.221 -2.83675,2.9273 -2.83675,1.82992 z m 458.66666,-2.66667 c 0,-0.27687 1.05,-1.32687 2.33333,-2.33333 2.11475,-1.6585 2.16191,-1.61134 0.50341,0.50341 -1.74182,2.221 -2.83674,2.92731 -2.83674,1.82992 z m -350.51199,-5.11321 -0.15467,-3.61664 -12.33333,-0.43998 -12.33334,-0.43998 12.37518,-0.27672 c 13.01126,-0.29095 14.6573,0.45316 13.22558,5.97873 -0.41429,1.59893 -0.67686,1.19287 -0.77942,-1.20541 z m 197.17866,-1 c 0,-2.36568 -1.11896,-2.6606 -11.66667,-3.07499 l -11.66667,-0.45836 11.8506,0.0749 c 11.03947,0.0699 11.92634,0.28034 12.95704,3.07499 0.66634,1.80669 0.59316,3 -0.18393,3 -0.70971,5e-5 -1.29037,-1.17743 -1.29037,-2.61657 z m -360.99999,-3.69676 c 3.48333,-0.27467 9.18333,-0.27467 12.66666,0 3.48334,0.27466 0.63334,0.49938 -6.33333,0.49938 -6.96667,0 -9.81667,-0.22472 -6.33333,-0.49938 z m -0.12282,-83.01995 c 0,-1.83333 0.30264,-2.58333 0.67252,-1.66667 0.36988,0.91667 0.36988,2.41667 0,3.33334 -0.36988,0.91666 -0.67252,0.16666 -0.67252,-1.66667 z m 283.45614,-3.66508 c 14.85,-0.21457 39.15,-0.21457 54,0 14.85,0.21459 2.7,0.39015 -27,0.39015 -29.7,0 -41.85,-0.17556 -27,-0.39015 z M 486.23054,413.47781 c 0.96249,-0.38516 2.11251,-0.3378 2.55556,0.1052 0.44305,0.44305 -0.34445,0.75818 -1.75,0.70029 -1.55327,-0.064 -1.8692,-0.37992 -0.80556,-0.80555 z m 219.02193,-93.2003 c 0.064,-1.55326 0.37992,-1.8692 0.80554,-0.80556 0.38516,0.9625 0.3378,2.1125 -0.1052,2.55556 -0.44305,0.44306 -0.75818,-0.34445 -0.70029,-1.75 z M 566.83925,268.1313 c 1.29729,-0.33805 3.09729,-0.31583 4,0.0495 0.9027,0.36524 -0.15871,0.64182 -2.35871,0.61465 -2.2,-0.0272 -2.93859,-0.326 -1.64129,-0.66405 z m 21.33333,0 c 1.29729,-0.33805 3.09729,-0.31583 4,0.0495 0.9027,0.36524 -0.15871,0.64182 -2.35871,0.61465 -2.2,-0.0272 -2.93859,-0.326 -1.64129,-0.66405 z"
         id="path943" />
      <path
         style="fill:#d0bace;stroke-width:1.33333"
         d="m 526.74047,557.72195 c 0.0272,-2.2 0.326,-2.93858 0.66406,-1.64129 0.33805,1.29729 0.31582,3.09729 -0.0495,4 -0.36524,0.90271 -0.64183,-0.15871 -0.61465,-2.35871 z m 263.84533,-0.11106 c 0.064,-1.55327 0.37992,-1.8692 0.80555,-0.80556 0.38516,0.96249 0.3378,2.1125 -0.1052,2.55556 -0.44306,0.44305 -0.75819,-0.34446 -0.7003,-1.75 z m -553.77192,-1.53188 c 3.11667,-0.28071 8.21667,-0.28071 11.33333,0 3.11667,0.28072 0.56667,0.5104 -5.66666,0.5104 -6.23334,0 -8.78334,-0.22968 -5.66667,-0.5104 z m 391.99999,0 c 3.11667,-0.28071 8.21667,-0.28071 11.33333,0 3.11667,0.28072 0.56667,0.5104 -5.66666,0.5104 -6.23334,0 -8.78334,-0.22968 -5.66667,-0.5104 z M 586.1472,420.17225 c 0.91667,-0.36988 2.41667,-0.36988 3.33334,0 0.91666,0.36988 0.16666,0.67252 -1.66667,0.67252 -1.83333,0 -2.58333,-0.30264 -1.66667,-0.67252 z m 14.75,-0.0277 c 0.9625,-0.38516 2.11251,-0.3378 2.55556,0.1052 0.44306,0.44306 -0.34445,0.75819 -1.75,0.7003 -1.55326,-0.064 -1.8692,-0.37992 -0.80556,-0.80555 z m 47.59278,-137.74058 c -0.46712,-0.75582 0.0681,-0.97934 1.25464,-0.52402 2.30989,0.88639 2.73252,1.84208 0.81461,1.84208 -0.69005,0 -1.62123,-0.59313 -2.06925,-1.31806 z m -72.98556,-14.31491 c 2.39647,-0.29675 5.99646,-0.29063 8,0.0136 2.00353,0.30424 0.0428,0.54703 -4.35721,0.53955 -4.4,-0.008 -6.03926,-0.2564 -3.64279,-0.55315 z"
         id="path941" />
      <path
         style="fill:#b7adc4;stroke-width:1.33333"
         d="m 831.81386,533.88521 c 0,-0.27687 1.05,-1.32687 2.33334,-2.33334 2.11474,-1.65849 2.1619,-1.61133 0.50341,0.50342 -1.74183,2.221 -2.83675,2.9273 -2.83675,1.82992 z"
         id="path939" />
      <path
         style="fill:#fda65d;stroke-width:1.33333"
         d="m 407.81388,424.55187 c 0,-0.27686 1.05,-1.32686 2.33333,-2.33333 2.11475,-1.65849 2.16191,-1.61133 0.50341,0.50341 -1.74182,2.221 -2.83674,2.92731 -2.83674,1.82992 z m 39.75,-20.4074 c 0.96249,-0.38516 2.1125,-0.3378 2.55556,0.1052 0.44305,0.44306 -0.34446,0.75819 -1.75,0.7003 -1.55327,-0.064 -1.8692,-0.37992 -0.80556,-0.80555 z m 43.99999,0 c 0.9625,-0.38516 2.11251,-0.3378 2.55556,0.1052 0.44306,0.44306 -0.34445,0.75819 -1.75,0.7003 -1.55326,-0.064 -1.8692,-0.37992 -0.80556,-0.80555 z m -26.08333,-1.37752 c 2.01667,-0.3055 5.31667,-0.3055 7.33333,0 2.01667,0.3055 0.36667,0.55546 -3.66666,0.55546 -4.03334,0 -5.68334,-0.24996 -3.66667,-0.55546 z m -5.66666,-72.88174 c 0,-0.27687 1.05,-1.32687 2.33333,-2.33334 2.11474,-1.65849 2.1619,-1.61133 0.50341,0.50342 -1.74182,2.221 -2.83674,2.9273 -2.83674,1.82992 z m 7.33333,-7.49659 c 1.32732,-1.46667 2.7133,-2.66667 3.07997,-2.66667 0.36667,0 -0.41932,1.2 -1.74664,2.66667 -1.32732,1.46667 -2.71331,2.66667 -3.07997,2.66667 -0.36667,0 0.41932,-1.2 1.74664,-2.66667 z m 79.08333,-59.57748 c 0.96249,-0.38516 2.11251,-0.3378 2.55556,0.1052 0.44305,0.44305 -0.34445,0.75819 -1.75,0.70029 -1.55327,-0.064 -1.8692,-0.37992 -0.80556,-0.80554 z m 40,0 c 0.96249,-0.38516 2.1125,-0.3378 2.55556,0.1052 0.44305,0.44305 -0.34446,0.75819 -1.75,0.70029 -1.55327,-0.064 -1.8692,-0.37992 -0.80556,-0.80554 z M 552.17258,196.1313 c 1.29729,-0.33805 3.09729,-0.31583 4,0.0495 0.90271,0.36524 -0.15871,0.64182 -2.35871,0.61465 -2.2,-0.0272 -2.93858,-0.326 -1.64129,-0.66405 z"
         id="path937" />
      <path
         style="fill:#9f92b1;stroke-width:1.33333"
         d="m 966.48053,587.21854 c 0,-0.27687 1.05,-1.32687 2.33333,-2.33333 2.11475,-1.6585 2.16191,-1.61134 0.50341,0.50341 -1.74182,2.221 -2.83674,2.92731 -2.83674,1.82992 z m -73.50341,-7.16325 c -1.6585,-2.11475 -1.61134,-2.16191 0.50341,-0.50342 2.221,1.74183 2.92731,2.83675 1.82992,2.83675 -0.27687,0 -1.32687,-1.05 -2.33333,-2.33333 z"
         id="path935" />
      <path
         style="fill:#fe9529;stroke-width:1.33333"
         d="m 401.49077,432.38862 c 0.29775,-0.73333 1.47893,-3.43333 2.62484,-6 1.14592,-2.56667 3.41475,-7.66667 5.04184,-11.33333 6.08459,-13.71162 15.89371,-32.71326 19.87343,-38.49758 2.26398,-3.2906 4.11633,-6.36972 4.11633,-6.84252 0,-1.16074 11.64661,-19.13513 15.17659,-23.42224 1.55288,-1.88594 4.32341,-5.47954 6.15674,-7.98578 3.91375,-5.35022 15.23323,-17.93558 20,-22.23663 3.73664,-3.37156 4.92333,-2.01184 2.955,3.38584 -1.23755,3.39365 -2.68256,8.53223 -5.88631,20.93224 -0.75788,2.93333 -1.83878,6.83333 -2.40202,8.66667 -0.56324,1.83333 -1.69366,5.88333 -2.51203,9 -0.81839,3.11666 -2.15872,8.21666 -2.97852,11.33333 -0.8198,3.11667 -1.82344,6.56667 -2.23032,7.66667 -1.11537,3.01549 -4.31645,16.07449 -5.17272,21.10241 -0.41548,2.43965 -1.43438,4.62291 -2.26424,4.85165 -0.82986,0.22876 -5.99569,1.43119 -11.47961,2.67207 -16.61985,3.76068 -28.82049,11.37873 -38.50189,24.04053 -1.68216,2.2 -2.81486,3.4 -2.51711,2.66667 z m 62.36141,-147.50576 c 0.90073,-1.73851 2.38861,-4.06091 3.3064,-5.16091 0.91779,-1.1 3.75512,-5.9 6.30519,-10.66666 2.55005,-4.76667 7.21905,-13.46667 10.37553,-19.33334 3.15648,-5.86666 8.69333,-16.36666 12.30411,-23.33333 3.61078,-6.96667 7.86377,-13.92913 9.45109,-15.47215 2.83508,-2.75594 17.80595,-9.38572 18.84587,-8.3458 0.85937,0.85938 -36.33227,74.80936 -38.22892,76.01247 -0.952,0.60389 -2.76312,1.10717 -4.02472,1.1184 -1.89256,0.0168 -14.65659,5.21768 -18.83922,7.67623 -0.62315,0.36629 -0.39606,-0.75642 0.50467,-2.49491 z"
         id="path933" />
      <path
         style="fill:#fe8633;stroke-width:1.33333"
         d="m 455.9302,398.88267 c 1.92653,-8.6427 4.71396,-19.71269 5.49614,-21.82738 0.71759,-1.94002 2.48207,-8.3537 5.31884,-19.33334 0.75788,-2.93333 1.83879,-6.83333 2.40203,-8.66666 0.56324,-1.83334 1.7343,-6.03334 2.60237,-9.33334 1.67752,-6.37708 2.71556,-10.18237 5.54673,-20.33333 l 1.7664,-6.33333 h 7.45408 c 8.65412,0 12.9316,2.31213 11.36006,6.14052 -0.57034,1.38938 -1.534,4.32614 -2.14147,6.52614 -0.60747,2.2 -1.7782,6.4 -2.60164,9.33334 -0.82344,2.93333 -2.01739,7.43333 -2.6532,10 -1.33971,5.40814 -3.26317,12.32214 -8.16051,29.33333 -1.81006,6.28741 -5.1927,19.81445 -6.08489,24.33333 -0.61176,3.09851 -1.39475,3.66667 -5.05317,3.66667 -2.38108,0 -7.04564,0.37232 -10.36569,0.82739 l -6.03646,0.82738 z m 32.09083,-121.26746 c 0.35455,-0.67463 8.9137,-17.91452 19.02032,-38.3109 13.31591,-26.87302 19.16462,-37.37684 21.24078,-38.14674 5.03241,-1.86615 20.79776,-4.61406 21.63996,-3.77184 1.04488,1.04486 -34.33726,71.90364 -36.10822,72.31288 -1.98864,0.45954 -20.94202,6.88126 -23.88538,8.09276 -1.47603,0.60752 -2.28027,0.53325 -1.90746,-0.17616 z"
         id="path931" />
      <path
         style="fill:#fd7a3b;stroke-width:1.33333"
         d="m 485.34181,404.06247 -9.80539,-0.46294 0.697,-4.27212 c 0.38335,-2.34967 1.60739,-7.87212 2.72007,-12.27212 1.88445,-7.45186 2.71374,-10.48678 6.19372,-22.66667 3.53814,-12.38351 4.25934,-14.99788 5.33333,-19.33333 1.17761,-4.75379 2.83581,-10.71312 5.47232,-19.66667 0.80979,-2.75 1.55979,-6.28212 1.66667,-7.84916 l 0.19434,-2.84915 6.45358,2.54376 c 11.45018,4.51324 14.40724,6.44163 13.63305,8.89054 -0.39365,1.24521 -1.91973,6.76401 -3.39131,12.26401 -1.47156,5.5 -4.51813,16.6 -6.77016,24.66667 -2.25202,8.06666 -5.647,20.81666 -7.54437,28.33333 -1.89737,7.51667 -3.80925,13.54745 -4.24861,13.40173 -0.43936,-0.1457 -5.21127,-0.47325 -10.60424,-0.72788 z m 30.47206,-135.65982 c 0,-0.47108 34.85043,-70.42054 35.45186,-71.1566 0.99601,-1.219 22.918,-1.74971 23.64558,-0.57244 0.44331,0.71728 -6.52226,16.07621 -15.47905,34.13097 l -16.28505,32.82684 -6,0.86007 c -3.3,0.47304 -9.45,1.6402 -13.66667,2.59369 -4.21667,0.95348 -7.66667,1.54635 -7.66667,1.31747 z"
         id="path929" />
      <path
         style="fill:#fd6a46;stroke-width:1.33333"
         d="m 510.04382,407.01907 c -6.47353,-0.94937 -12.06895,-2.025 -12.43424,-2.3903 -0.69061,-0.6906 3.13628,-16.40468 10.12448,-41.57348 2.23973,-8.06667 5.50447,-19.94719 7.25496,-26.40115 1.75048,-6.45396 3.46748,-12.01927 3.81555,-12.36733 0.64858,-0.64858 12.6204,5.82341 21.07266,11.39193 l 4.73004,3.11624 -3.136,12.13016 c -1.72478,6.67157 -5.42345,20.23015 -8.21924,30.13015 -2.79578,9.9 -5.63437,20.09588 -6.30798,22.6575 -0.6736,2.56164 -2.10346,4.74187 -3.17746,4.84496 -1.074,0.10307 -7.24924,-0.58932 -13.72277,-1.53868 z m -26.56328,-94.84682 c 0.91667,-0.36988 2.41667,-0.36988 3.33333,0 0.91667,0.36988 0.16667,0.67252 -1.66666,0.67252 -1.83334,0 -2.58334,-0.30264 -1.66667,-0.67252 z m 60.33052,-49.60927 c 10e-4,-0.27077 7.1838,-14.90883 15.96057,-32.52901 8.77676,-17.62019 15.6127,-32.59502 15.19095,-33.2774 -1.30639,-2.11379 18.7348,1.18761 27.85129,4.58794 2.01667,0.7522 3.66667,1.78055 3.66667,2.28522 0,0.50468 -6.45,13.78188 -14.33334,29.5049 l -14.33333,28.58732 -17.00281,0.66667 c -9.35155,0.36667 -17.00155,0.44513 -17,0.17436 z"
         id="path927" />
      <path
         style="fill:#fd5654;stroke-width:1.33333"
         d="m 542.48054,412.79149 c -6.23333,-1.28559 -12.60772,-2.64462 -14.16531,-3.02006 l -2.83196,-0.6826 2.96346,-11.01677 c 1.6299,-6.05923 5.13581,-18.81677 7.7909,-28.35011 2.6551,-9.53333 5.616,-20.33333 6.57979,-24 0.9638,-3.66666 2.04357,-6.66666 2.39952,-6.66666 0.35593,0 6.10599,3.49294 12.77789,7.76209 l 12.13072,7.76209 -2.65002,9.57124 c -1.45752,5.26419 -3.44842,12.87124 -4.4242,16.90458 -0.9758,4.03333 -2.36959,9.43333 -3.09731,12 -2.10615,7.42838 -4.23784,15.0569 -5.22647,18.70348 l -0.91368,3.37014 z M 595.81387,264.1537 c -4.76667,-0.90233 -10.84508,-1.66861 -13.50757,-1.70284 l -4.84092,-0.0622 14.75732,-29.43363 c 11.99896,-23.93208 14.3991,-29.66029 12.8409,-30.64625 -4.00756,-2.53581 1.1872,-0.97799 12.64939,3.79333 6.54451,2.72427 12.11003,5.59979 12.36783,6.39004 0.25778,0.79026 -5.39682,13.10654 -12.56579,27.36951 l -13.03449,25.93268 z"
         id="path925" />
      <path
         style="fill:#fe4a5c;stroke-width:1.33333"
         d="m 592.82942,420.11227 c 1.65854,-0.31892 4.05854,-0.30681 5.33333,0.0269 1.27479,0.33372 -0.0823,0.59466 -3.01555,0.57986 -2.93333,-0.0148 -3.97633,-0.28785 -2.31778,-0.60677 z m -31.46176,-3.5255 c -7.86156,-1.53498 -7.77368,-1.26714 -4.3302,-13.19815 2.90164,-10.05363 4.27707,-15.15369 6.02303,-22.33333 3.96725,-16.31387 7.0541,-25.9842 8.20472,-25.70338 0.66842,0.16315 4.65508,1.66315 8.85922,3.33334 8.6982,3.45556 9.08397,4.56406 5.60973,16.1195 -2.30338,7.66114 -4.45154,15.51798 -8.63546,31.58387 -3.41964,13.13116 -2.79225,12.72444 -15.73104,10.19815 z M 619.1472,269.87769 c -2.2,-0.95694 -6.25,-2.16064 -9,-2.6749 -2.75,-0.51425 -5,-1.2882 -5,-1.71988 0,-1.49913 25.82139,-52.42756 26.57516,-52.41512 1.70599,0.0281 14.75818,8.12495 14.75818,9.1551 0,0.6125 -5.3812,11.61917 -11.95822,24.45925 -6.57702,12.84008 -11.57702,23.7268 -11.11112,24.19271 1.19939,1.19938 0.30502,0.99022 -4.264,-0.99716 z"
         id="path923" />
      <path
         style="fill:#fd4262;stroke-width:1.33333"
         d="m 577.54541,418.78734 c -3.7741,-0.49337 -4.13763,-0.89623 -3.13886,-3.47836 0.6213,-1.6062 1.83276,-5.62036 2.69215,-8.92036 4.18392,-16.06589 6.33208,-23.92273 8.63546,-31.58387 1.14384,-3.80445 2.07971,-8.15445 2.07971,-9.66666 0,-2.1268 0.85116,-2.74947 3.7584,-2.74947 3.21044,0 4.85569,1.60377 11.28448,11 6.98663,10.21155 7.44036,11.33449 6.33013,15.66667 -0.65776,2.56666 -2.65385,10.36666 -4.43576,17.33333 l -3.23981,12.66667 -9.84872,0.14502 c -5.4168,0.0797 -11.76953,-0.10613 -14.11718,-0.41297 z m 54.57425,-143.89321 -9.69423,-4.59567 12.05855,-23.54147 c 6.6322,-12.94781 12.37722,-23.86014 12.76672,-24.24964 0.38949,-0.38949 1.12554,-0.1256 1.63566,0.58655 0.51014,0.71209 3.62751,3.3784 6.92751,5.92513 3.3,2.54672 6.66984,5.23892 7.48855,5.98266 1.07185,0.9737 -1.2095,6.64569 -8.14979,20.26236 -5.30108,10.40056 -9.96476,20.15837 -10.36372,21.68401 -0.91313,3.49184 -1.00085,3.47761 -12.66925,-2.05393 z"
         id="path921" />
      <path
         style="fill:#fd316e;stroke-width:1.33333"
         d="m 602.54027,414.78343 c 0.63723,-2.83606 2.15188,-8.73512 3.36589,-13.10898 1.21402,-4.37387 2.50907,-9.60984 2.87791,-11.63548 0.36883,-2.02564 1.11988,-3.96067 1.66901,-4.30004 1.04628,-0.64664 18.69412,25.0411 18.69412,27.21068 0,1.52332 -11.49648,4.88021 -20.88276,6.09762 l -6.88276,0.89271 z m 102.81745,-88.39481 c 0,-1.83333 0.30264,-2.58333 0.67252,-1.66667 0.36988,0.91667 0.36988,2.41667 0,3.33334 -0.36988,0.91666 -0.67252,0.16666 -0.67252,-1.66667 z m -36.87718,-30.80325 c -8.6449,-7.2785 -21.26851,-15.86342 -23.32623,-15.86342 -1.86675,0 0.18037,-4.96441 10.35151,-25.10321 l 8.97472,-17.76988 6.47864,7.10321 c 10.36581,11.36512 22.61926,30.43655 19.5556,30.43655 -0.75216,0 -1.36758,0.82653 -1.36758,1.83675 0,1.0102 -0.86208,2.55218 -1.91572,3.42664 -2.63353,2.18564 -11.49641,20.19708 -10.629,21.6006 1.26854,2.05252 -0.0249,1.15 -8.12194,-5.66724 z"
         id="path919" />
      <path
         style="fill:#fd1782;stroke-width:1.33333"
         d="m 699.60639,328.72194 c -3.41412,-4.58333 -10.19577,-12.73835 -15.07036,-18.12225 -4.87457,-5.38392 -8.68121,-10.18392 -8.45919,-10.66667 4.54612,-9.88452 9.47167,-18.88427 11.05412,-20.19759 1.10894,-0.92033 2.01624,-2.49986 2.01624,-3.51006 0,-5.681 5.44038,2.39248 9.544,14.16325 1.40613,4.03333 3.38169,11.53333 4.39012,16.66667 1.74695,8.89269 3.94315,30.00002 3.12148,29.99998 -0.21391,-1e-5 -3.18229,-3.75001 -6.59641,-8.33333 z"
         id="path917" />
      <path
         style="fill:#85739a;stroke-width:1.33333"
         d="m 832.97712,582.72195 c -1.6585,-2.11474 -1.61134,-2.1619 0.50341,-0.50341 2.221,1.74183 2.92731,2.83675 1.82992,2.83675 -0.27687,0 -1.32687,-1.05 -2.33333,-2.33334 z m 55.37673,-7.33333 -2.53999,-3 3,2.53999 c 1.65,1.39698 3,2.74698 3,3 0,1.067 -1.07305,0.27926 -3.46001,-2.53999 z m -32.15797,-24.65344 c 4.24344,-0.2654 10.84344,-0.26293 14.66666,0.005 3.82323,0.26842 0.35132,0.48556 -7.71534,0.48255 -8.06667,-0.003 -11.19476,-0.22261 -6.95132,-0.48801 z M 417.14721,529.88521 c 0,-0.27687 1.05,-1.32687 2.33333,-2.33334 2.11475,-1.65849 2.16191,-1.61133 0.50342,0.50342 -1.74183,2.221 -2.83675,2.9273 -2.83675,1.82992 z"
         id="path915" />
      <path
         style="fill:#705b8a;stroke-width:1.33333"
         d="m 330.23055,594.81114 c 0.96249,-0.38516 2.11249,-0.3378 2.55556,0.1052 0.44305,0.44305 -0.34446,0.75819 -1.75,0.70029 -1.55327,-0.064 -1.8692,-0.37992 -0.80556,-0.80554 z m 154.58332,0.0277 c 0.91667,-0.36988 2.41667,-0.36988 3.33334,0 0.91666,0.36988 0.16666,0.67252 -1.66667,0.67252 -1.83333,0 -2.58333,-0.30264 -1.66667,-0.67252 z m 294.66666,0 c 0.91667,-0.36988 2.41667,-0.36988 3.33334,0 0.91666,0.36988 0.16666,0.67252 -1.66667,0.67252 -1.83333,0 -2.58333,-0.30264 -1.66667,-0.67252 z m 84.69204,-0.0409 c 1.29729,-0.33805 3.09729,-0.31583 4,0.0495 0.90271,0.36524 -0.15871,0.64182 -2.35871,0.61465 -2.2,-0.0272 -2.93858,-0.326 -1.64129,-0.66405 z m 73.33333,0 c 1.29729,-0.33805 3.09729,-0.31583 4,0.0495 0.90271,0.36524 -0.15871,0.64182 -2.35871,0.61465 -2.2,-0.0272 -2.93858,-0.326 -1.64129,-0.66405 z m -53.86212,-24.07599 c -1.65849,-2.11474 -1.61133,-2.1619 0.50342,-0.50341 1.28333,1.00647 2.33333,2.05647 2.33333,2.33333 0,1.09739 -1.09492,0.39108 -2.83675,-1.82992 z"
         id="path913" />
      <path
         style="fill:#594278;stroke-width:1.33333"
         d="m 195.48055,593.40563 c 3.85,-0.26933 10.15,-0.26933 14,0 3.85,0.26934 0.7,0.48971 -7,0.48971 -7.7,0 -10.85,-0.22037 -7,-0.48971 z m 80,0 c 3.85,-0.26933 10.15,-0.26933 14,0 3.85,0.26934 0.7,0.48971 -7,0.48971 -7.7,0 -10.85,-0.22037 -7,-0.48971 z m 88.64498,0.0189 11.64499,-0.47244 0.3883,-35.28231 0.38831,-35.28231 -0.0333,35.66724 -0.0333,35.66723 -12,0.0875 -12,0.0875 11.64499,-0.47242 z m 35.39971,-0.0204 c 3.87458,-0.2702 9.87458,-0.26736 13.33333,0.007 3.45875,0.27367 0.28864,0.49472 -7.04469,0.49126 -7.33334,-0.004 -10.16323,-0.22738 -6.28864,-0.49756 z m 139.55698,-0.70403 c -0.35637,-0.92871 -0.47696,-17.27871 -0.26796,-36.33333 l 0.37999,-34.64478 0.30981,35.61663 0.30981,35.61664 12.33334,0.43997 12.33333,0.43999 -12.37517,0.27672 c -8.96606,0.20049 -12.5537,-0.18844 -13.02315,-1.41184 z m 48.39832,0.70557 c 3.85,-0.26933 10.15,-0.26933 14,0 3.85,0.26934 0.7,0.48971 -7,0.48971 -7.7,0 -10.85,-0.22037 -7,-0.48971 z m 80,0 c 3.85,-0.26933 10.15,-0.26933 14,0 3.85,0.26934 0.7,0.48971 -7,0.48971 -7.7,0 -10.85,-0.22037 -7,-0.48971 z m 27.60762,-0.69008 c -0.3531,-0.92018 -0.47645,-23.27018 -0.2741,-49.66666 l 0.3679,-47.9936 0.31596,48.94996 0.31595,48.94997 12.33333,0.43997 12.33333,0.43999 -12.37517,0.27672 c -8.90758,0.19919 -12.55508,-0.19208 -13.0172,-1.39635 z M 301.69,543.72195 c 0,-12.1 0.20213,-17.05 0.4492,-11 0.24705,6.05 0.24705,15.95 0,22 -0.24707,6.05 -0.4492,1.1 -0.4492,-11 z m 132.54054,-0.91081 c 0.9625,-0.38516 2.11251,-0.3378 2.55556,0.1052 0.44306,0.44305 -0.34445,0.75819 -1.75,0.70029 -1.55326,-0.064 -1.8692,-0.37992 -0.80556,-0.80554 z m 145.25,0.0277 c 0.91667,-0.36988 2.41666,-0.36988 3.33333,0 0.91667,0.36988 0.16667,0.67252 -1.66666,0.67252 -1.83334,0 -2.58334,-0.30264 -1.66667,-0.67252 z M 416.12321,526.38862 c 0,-2.56667 0.2744,-3.61667 0.60977,-2.33333 0.33536,1.28333 0.33536,3.38333 0,4.66666 -0.33537,1.28334 -0.60977,0.23334 -0.60977,-2.33333 z m 219.02399,-24 -13.33333,-0.81689 12.92131,-0.25822 c 7.46865,-0.14925 13.26905,0.30443 13.74536,1.07511 0.45322,0.73333 0.63864,1.21713 0.41202,1.07511 -0.22661,-0.14202 -6.41202,-0.62582 -13.74536,-1.07511 z m -398.28863,-0.98453 c 3.87459,-0.2702 9.87459,-0.26736 13.33334,0.007 3.45874,0.27367 0.28864,0.49472 -7.0447,0.49126 -7.33333,-0.004 -10.16322,-0.22738 -6.28864,-0.49756 z m 191.95531,-57.34706 c 14.11666,-0.21596 37.21666,-0.21596 51.33333,0 14.11666,0.21596 2.56666,0.39267 -25.66667,0.39267 -28.23333,0 -39.78333,-0.17671 -25.66666,-0.39267 z m 17.41666,-31.91256 c 0.9625,-0.38516 2.11251,-0.3378 2.55556,0.1052 0.44306,0.44306 -0.34445,0.75819 -1.75,0.7003 -1.55326,-0.064 -1.8692,-0.37992 -0.80556,-0.80555 z m 17.33333,0 c 0.9625,-0.38516 2.11251,-0.3378 2.55556,0.1052 0.44306,0.44306 -0.34445,0.75819 -1.75,0.7003 -1.55326,-0.064 -1.86919,-0.37992 -0.80556,-0.80555 z"
         id="path911" />
      <path
         style="fill:#4f2b65;stroke-width:1.33333"
         d="m 336.81388,573.50558 c 0.91667,-0.36988 2.41667,-0.36988 3.33333,0 0.91667,0.36988 0.16667,0.67252 -1.66666,0.67252 -1.83334,0 -2.58334,-0.30264 -1.66667,-0.67252 z m 636.59325,-2.45029 c 0.0272,-2.2 0.326,-2.93859 0.66405,-1.6413 0.33805,1.2973 0.31583,3.0973 -0.0495,4 -0.36524,0.90271 -0.64182,-0.1587 -0.61465,-2.3587 z M 900.1232,558.38862 c 0,-2.56667 0.2744,-3.61667 0.60977,-2.33333 0.33536,1.28333 0.33536,3.38333 0,4.66666 -0.33537,1.28334 -0.60977,0.23334 -0.60977,-2.33333 z m -140.09881,0 c 0,-1.83333 0.30264,-2.58333 0.67252,-1.66667 0.36988,0.91667 0.36988,2.41667 0,3.33334 -0.36988,0.91666 -0.67252,0.16666 -0.67252,-1.66667 z m -243.67053,-25.66667 -2.53999,-3 3,2.53999 c 1.65,1.39699 3,2.74699 3,3 0,1.067 -1.07305,0.27927 -3.46001,-2.53999 z m 420.54333,-11.24414 c 0.9625,-0.38516 2.11251,-0.3378 2.55556,0.1052 0.44306,0.44305 -0.34445,0.75818 -1.75,0.70029 -1.55326,-0.064 -1.86919,-0.37992 -0.80556,-0.80555 z M 692.97712,321.38862 c -1.65849,-2.11475 -1.61133,-2.16191 0.50342,-0.50341 2.221,1.74182 2.9273,2.83674 1.82992,2.83674 -0.27687,0 -1.32687,-1.05 -2.33334,-2.33333 z m -202.74658,-9.24415 c 0.96249,-0.38516 2.11251,-0.3378 2.55556,0.1052 0.44305,0.44306 -0.34445,0.75819 -1.75,0.7003 -1.55327,-0.064 -1.8692,-0.37992 -0.80556,-0.80555 z m 182.74658,-12.08918 c -1.65849,-2.11475 -1.61133,-2.16191 0.50342,-0.50342 1.28333,1.00647 2.33333,2.05647 2.33333,2.33334 0,1.09738 -1.09492,0.39108 -2.83675,-1.82992 z M 564.17258,194.79797 c 1.29729,-0.33806 3.09729,-0.31583 4,0.0495 0.90271,0.36524 -0.15871,0.64183 -2.35871,0.61466 -2.2,-0.0272 -2.93858,-0.326 -1.64129,-0.66406 z"
         id="path909" />
      <path
         style="fill:#21024b;stroke-width:1.33333"
         d="m 735.81387,571.05529 v -48.66667 h 11.91144 c 11.73326,0 11.91774,0.0503 12.33333,3.36313 l 0.42189,3.36312 5.29072,-3.60874 c 4.61106,-3.14515 6.59755,-3.60874 15.46375,-3.60874 8.62509,0 11.09984,0.54315 16.26401,3.56955 7.82434,4.58537 15.32804,13.37223 16.62847,19.47197 1.85551,8.70334 1.04081,24.3981 -1.5458,29.77946 -6.09539,12.68124 -17.11505,19.59233 -31.31733,19.64097 -6.78628,0.0232 -9.74238,-0.66977 -14.33334,-3.36025 l -5.78381,-3.38955 v 16.05621 16.0562 h -12.66667 -12.66666 z m 50.26762,0.33333 c 4.14295,-4.54857 5.73238,-8.33201 5.73238,-13.64523 0,-10.08329 -6.5058,-16.6881 -16.43794,-16.6881 -14.23206,0 -20.1653,19.03313 -9.31548,29.88296 4.73448,4.73446 15.89042,4.98542 20.02104,0.45037 z m -468.67117,20.08584 c -6.29061,-3.04969 -11.06607,-8.61053 -13.41231,-15.61813 -0.91461,-2.73175 -1.51746,-14.25262 -1.51746,-29 v -24.46771 h 12 12 v 21.80531 c 0,21.20573 0.0885,21.90082 3.21969,25.2794 4.28847,4.62733 8.86944,5.62717 13.88909,3.03141 7.65908,-3.96067 8.22455,-5.95999 8.22455,-29.07947 v -21.03665 h 12 12 v 35.33333 35.33334 h -11.33334 -11.33333 v -3.53999 c 0,-3.26189 -0.18329,-3.37927 -2.33333,-1.49412 -7.95412,6.97416 -22.94441,8.52387 -33.40356,3.45328 z m 157.07022,1.96969 c -12.26168,-4.49962 -20.51234,-11.59666 -24.83112,-21.35916 -2.84396,-6.42872 -2.88872,-21.96549 -0.0819,-28.42413 3.06358,-7.04941 10.01164,-13.93503 18.21573,-18.05201 9.89197,-4.964 26.35466,-5.21963 37.06984,-0.5756 29.89626,12.95722 28.57296,55.21093 -2.08926,66.71117 -6.80285,2.55149 -23.26612,3.54088 -28.28332,1.69973 z m 22.67117,-22.85492 c 4.76411,-4.7641 6.25514,-12.0205 3.92235,-19.08892 -2.40275,-7.28038 -6.80975,-10.4552 -14.44,-10.40262 -10.02415,0.0691 -14.82019,5.72752 -14.82019,17.48504 0,6.70974 0.48094,8.0817 4.10256,11.70333 3.48719,3.48717 5.10258,4.10256 10.76924,4.10256 5.5514,0 7.30226,-0.6356 10.46604,-3.79939 z m 350.11523,20.49644 c -30.39594,-12.49606 -31.28275,-52.90138 -1.45308,-66.20546 9.35152,-4.17079 25.37415,-4.10054 34.35882,0.15064 13.50556,6.39028 19.64118,15.93656 19.64118,30.55928 v 9.46516 h -25.33333 c -13.93333,0 -25.33333,0.48774 -25.33333,1.08388 0,0.59613 1.79938,2.8078 3.99864,4.91482 5.43714,5.20911 16.7869,6.17108 24.62032,2.08676 l 5.28561,-2.7559 6.36357,6.26789 6.36358,6.26788 -2.86882,3.05371 c -8.0342,8.55201 -31.01424,11.12544 -45.64316,5.11134 z m 30.536,-42.36372 c -0.4715,-1.65 -2.73926,-4.65 -5.03948,-6.66666 -7.31926,-6.41703 -18.51329,-4.24555 -23.01774,4.46512 -1.06252,2.05468 -1.93186,4.06558 -1.93186,4.46866 0,0.40308 6.94043,0.73288 15.42319,0.73288 15.35953,0 15.41964,-0.012 14.56589,-3 z m 39.34426,42.49698 c -9.6724,-3.34602 -9.70724,-3.44283 -5.03067,-13.97807 l 2.82616,-6.36671 7.43559,3.05892 c 9.95841,4.09679 23.91883,4.34151 27.41294,0.48056 1.95644,-2.16182 2.08541,-3.00948 0.71007,-4.66666 -0.92434,-1.11376 -3.25715,-2.02572 -5.18402,-2.02659 -7.24426,-0.003 -22.79638,-3.75599 -27.42777,-6.61835 -5.90945,-3.65224 -8.7423,-8.85897 -8.7423,-16.06818 0,-9.09188 4.98686,-15.53919 15.67673,-20.26783 4.94687,-2.18824 9.01261,-2.7832 19.01932,-2.7832 13.35134,0 26.63728,3.11791 26.63728,6.25116 0,0.89708 -1.52463,4.69059 -3.38807,8.43001 l -3.38807,6.79896 -4.2786,-2.16789 c -2.35322,-1.19235 -8.48292,-2.39229 -13.62152,-2.66656 -7.96114,-0.42491 -9.69136,-0.1136 -11.69881,2.10457 -3.62542,4.00606 -1.62174,6.42784 6.77551,8.18939 18.00669,3.77737 21.15781,4.6952 25.20161,7.34045 5.46416,3.57436 7.06461,7.20383 7.06461,16.02086 0,6.2022 -0.56822,7.72337 -4.48057,11.99465 -6.59713,7.20239 -15.51149,10.12903 -30.53373,10.0244 -9.14248,-0.0637 -14.55379,-0.85888 -20.98569,-3.08389 z m -726.66665,1.38746 c 0,-0.78209 4.90144,-11.97089 10.15432,-23.17984 2.48179,-5.2958 4.51235,-9.98425 4.51235,-10.41877 0,-0.43452 1.5,-4.05159 3.33333,-8.03793 10.32685,-22.4544 15.19652,-33.37026 16.76343,-37.57694 4.39443,-11.79774 3.12266,-11.00429 17.6379,-11.00429 h 13.08372 l 4.73935,10.33333 c 2.60664,5.68334 5.50714,12.43334 6.44556,15 0.93841,2.56667 3.5074,8.56667 5.70884,13.33334 4.58368,9.92476 10.0094,22.11537 16.31938,36.66666 1.59,3.66667 3.73338,8.40886 4.76303,10.53819 1.02967,2.12933 1.87212,4.07933 1.87212,4.33333 0,0.254 -5.95957,0.46182 -13.24348,0.46182 -12.59612,0 -13.28456,-0.14666 -14.0838,-3 -0.84916,-3.03155 -2.82249,-7.99616 -4.63727,-11.66667 -0.8004,-1.61887 -4.7938,-2.06991 -20.95544,-2.36685 l -19.96659,-0.36687 -3.27582,8.36687 -3.27581,8.36685 -12.94756,0.38161 c -7.12116,0.2099 -12.94756,0.13616 -12.94756,-0.16384 z m 64,-36.70105 c 0,-0.63248 -1.8601,-5.58248 -4.13355,-11 -2.27345,-5.41753 -4.73723,-11.92888 -5.47505,-14.46965 l -1.3415,-4.61962 -2.26233,4.6511 c -1.84507,3.79325 -5.63185,12.85664 -10.41247,24.92145 -0.49914,1.25967 2.30479,1.66667 11.48224,1.66667 6.67847,0 12.14266,-0.51748 12.14266,-1.14995 z m 138.66666,1.81661 v -35.33333 h 11.33333 11.33334 v 4 c 0,4.41724 1.43165,5.09467 4.06393,1.92296 2.24083,-2.70001 8.49989,-5.26311 15.60273,-6.38932 l 5.66667,-0.89849 v 11.49174 c 0,9.92407 -0.28729,11.3815 -2.10596,10.68362 -4.1952,-1.60986 -12.67251,0.83974 -16.64147,4.80872 l -3.91924,3.91924 v 20.56409 20.56411 h -12.66666 -12.66667 z m 146.66666,0 v -35.33333 h 11.33334 11.33333 v 3.94493 3.94492 l 6.33333,-3.81297 c 3.48334,-2.09713 8.88334,-4.17944 12,-4.62735 l 5.66667,-0.81438 -3.4e-4,11.01576 -3.3e-4,11.01576 -6.03842,0.1288 c -3.32114,0.0708 -7.57218,0.9496 -9.44675,1.95285 -6.14092,3.28648 -7.18083,7.41652 -7.18083,28.5188 v 19.39955 h -12 -12 z m 45.85616,27.04836 c 1.76165,-4.60993 5.99757,-14.38169 9.41317,-21.71502 7.3586,-15.79903 7.38846,-15.86583 12.80654,-28.66667 2.32793,-5.5 5.56637,-13 7.19653,-16.66667 1.63016,-3.66666 3.80723,-8.61666 4.83791,-11 l 1.87398,-4.33333 h 12.97454 12.97452 l 2.7,6 c 1.48498,3.3 3.96416,8.85 5.50926,12.33333 1.54511,3.48334 4.61047,10.23334 6.81192,15 2.20144,4.76667 4.75786,10.76667 5.68091,13.33334 0.92304,2.56666 3.79864,9.16666 6.39021,14.66666 6.08346,12.9107 12.97435,28.23399 12.97435,28.8511 0,0.26522 -5.85353,0.48224 -13.00785,0.48224 -14.58264,0 -12.63596,1.31272 -18.2897,-12.33334 l -2.07157,-5 H 634.60378 614.7628 l -3.33094,8.33334 -3.33094,8.33333 -12.81694,0.38169 -12.81694,0.38171 z m 60.81639,-28.71502 c 0.003,-0.55 -2.48071,-7.19463 -5.51987,-14.76586 -6.44153,-16.0473 -6.62245,-16.03217 -13.14956,1.09919 -2.37491,6.23333 -4.61137,12.08333 -4.96989,13 -0.49244,1.25904 2.31789,1.66667 11.49078,1.66667 6.67847,0 12.1453,-0.45 12.14854,-1 z m 49.32745,-11.66667 v -48.66667 h 12 12 v 48.66667 48.66667 h -12 -12 z M 401.41388,442.12195 c -3.09579,-3.09578 -1.52516,-6.75064 6.10457,-14.20542 9.03045,-8.82339 18.44885,-12.68171 36.17853,-14.82078 11.48743,-1.38594 34.14604,-0.17622 52.11689,2.78248 9.27072,1.52634 34.87294,7.60555 35.75812,8.49074 0.66542,0.66541 -4.72606,8.36829 -8.59428,12.27876 -6.78466,6.85874 -8.80697,7.07422 -66.39333,7.07422 -39.88817,0 -53.97916,-0.40865 -55.1705,-1.6 z m 249.73332,-9.34206 c -7.82637,-2.73574 -12.69074,-8.00828 -26.51002,-28.73458 -7.69732,-11.54452 -16.76688,-24.89002 -20.15458,-29.65669 -3.38769,-4.76667 -8.60264,-12.26667 -11.58876,-16.66667 -8.65832,-12.75788 -10.75449,-13.67697 -16.69537,-7.32024 l -3.75056,4.0131 -12.64144,-7.50558 c -6.95278,-4.12806 -15.04544,-9.15756 -17.98368,-11.17665 -15.2362,-10.46999 -45.89569,-23.97164 -54.60114,-24.04493 -3.93484,-0.0331 -3.64043,-0.45684 8.59222,-12.36596 13.61008,-13.25014 19.69575,-16.89631 38.37034,-22.98927 28.86768,-9.41865 55.34834,-9.81743 87.40541,-1.31624 4.27666,1.13412 8.88722,2.65688 10.24568,3.38391 1.35846,0.72702 4.07817,1.32186 6.04381,1.32186 3.97071,0 13.46747,4.69863 24.60143,12.17183 14.40953,9.67177 32.29076,29.1528 45.73623,49.82817 3.33828,5.13334 10.07043,15.03334 14.96034,22 4.88989,6.96667 13.48358,19.56667 19.09708,28 5.61349,8.43334 10.55909,15.63334 10.99022,16 2.30951,1.96415 13.21612,19.61278 13.21612,21.38576 0,5.14647 -1.52368,5.28418 -57.26666,5.17564 -34.00603,-0.0661 -55.55081,-0.62404 -58.06667,-1.50346 z M 600.48054,199.54513 c -10.46424,-2.89083 -34.57125,-5.45482 -39.40421,-4.19098 -2.85024,0.74536 -2.56706,-0.005 2.91925,-7.73672 3.34161,-4.70918 8.61711,-12.30724 11.72333,-16.88457 3.10622,-4.57735 6.13519,-8.62375 6.73107,-8.99201 0.59586,-0.36828 4.89652,4.80797 9.55698,11.50277 13.66902,19.63565 19.83231,29.15419 18.78568,29.01247 -0.53832,-0.0729 -5.17877,-1.29283 -10.3121,-2.71096 z"
         id="path907" />
    </g>
  </g>
</svg>
